<svg width="6526" height="2243" viewBox="0 0 6526 2243" fill="none" xmlns="http://www.w3.org/2000/svg">
<path d="M1811.94 663.715L1907.81 442L2069.6 615.777L2141.5 933.369V1376.8L1865.87 1862.18L1632.17 2000L1386.5 1748.32L1811.94 663.715Z" fill="#FA5D29"/>
<path d="M129.341 658.284L512.413 221L560.297 855.961L889.5 1233.34V1838.35L644.094 2054L362.775 1868.3L165.254 1544.83L63.5 1161.46L129.341 658.284Z" fill="#F99539"/>
<path d="M1159.12 1101L1057.38 1178.89L1009.5 1574.35L1207 1826L1404.5 1376.62L1308.74 1101H1159.12Z" fill="#9F9E5F"/>
<path d="M599 1969.42C584.596 1985.07 562.469 2008.52 544.204 2033.83C840.103 2199.41 1282.39 2225.41 1401.37 2165.92C1520.36 2106.42 1224.46 1633.17 1206.46 1613.6C1188.45 1594.03 1160.66 1549.8 1140.7 1519.26C1120.74 1488.73 1102.34 1442.93 1089.82 1416.32C1077.29 1389.7 1073.77 1353.3 1069.07 1313.37C1064.38 1273.44 1073.38 1227.25 1076.9 1206.9C1080.42 1186.54 1089.03 1171.28 1094.12 1157.19C1098.19 1145.91 1121.13 1113.09 1132.09 1098.08L1100.78 78H832.275L652.622 179.773C654.449 183.296 643.62 199.502 585.692 236.14C513.283 281.938 474.534 322.647 439.7 352.788C404.865 382.928 373.553 435.772 365.333 447.123C357.114 458.475 326.193 521.105 338.718 550.071C351.243 579.037 358.679 580.211 369.639 589.606C378.406 597.121 405.126 608.395 417.39 613.092C417.129 613.875 415.12 618.337 409.17 629.924C401.734 644.407 393.514 665.544 387.252 682.376C380.989 699.208 376.684 727.783 373.944 751.66C371.204 775.538 371.987 790.804 372.77 812.333C373.553 833.861 382.946 865.568 384.903 870.265C386.86 874.962 390.774 884.748 394.688 914.497C398.602 944.246 382.164 975.952 378.25 984.955C374.336 993.958 347.329 1031.14 345.372 1034.28C343.415 1037.41 329.324 1052.28 314.451 1073.42C299.578 1094.56 296.838 1107.87 297.621 1118.04C298.403 1128.22 308.58 1138.01 314.451 1140.75C320.322 1143.49 342.24 1156.01 349.677 1162.28C357.114 1168.54 355.157 1176.76 353.982 1179.5C352.808 1182.24 342.632 1194.76 336.369 1200.24C331.359 1204.63 324.628 1213.55 321.888 1217.47C320.583 1219.95 318.209 1226.08 319.148 1230.78C320.322 1236.65 325.802 1240.56 331.281 1246.83C336.683 1253 337.521 1258.03 338.293 1262.67L338.327 1262.87C339.109 1267.57 336.761 1275.01 336.369 1279.71C335.978 1284.4 335.195 1293.8 339.109 1301.24C343.023 1308.67 361.028 1320.42 367.29 1323.94C373.553 1327.46 379.815 1336.46 383.338 1344.29C386.86 1352.12 389.209 1375.61 390.383 1384.22C391.557 1392.83 396.254 1416.71 411.91 1435.11C427.566 1453.5 440.091 1448.81 450.659 1449.98C461.226 1451.15 535.201 1443.33 544.204 1442.54C551.405 1441.92 625.746 1436.28 662.016 1433.54C669.583 1441.11 688.553 1460.63 703.895 1478.16C723.074 1500.08 728.162 1517.31 734.816 1532.18C741.47 1547.06 751.647 1587.77 755.561 1598.33C759.475 1608.9 765.737 1646.48 766.911 1659.4C768.085 1672.32 768.085 1695.8 760.649 1725.94C753.212 1756.08 735.208 1785.83 729.728 1796.01C724.248 1806.19 699.59 1843.37 692.154 1853.55C684.717 1863.73 665.93 1889.17 658.493 1899.35C651.056 1909.53 617.004 1949.84 599 1969.42Z" fill="#271619" stroke="black" stroke-width="0.621338"/>
<path d="M673.112 727.516C755.45 988.536 983.551 1112.35 1087.31 1141.63C1099.36 1145.34 1144.04 1119.83 1141.95 1109.92C1152.83 1080.64 1159.34 1025.95 1173.4 1002.86C1190.97 973.998 1349.71 856.896 1407.37 847.987C1469.01 838.463 1777.33 674.003 1814.04 618.339C1848.73 565.737 1871.78 504.143 1888.09 462.731C1904.41 421.319 1859.22 374.888 1814.04 327.201C1768.85 279.515 1614.47 160.299 1436.24 115.122C1258.01 69.9458 1087.31 90.0243 916.61 160.299C745.911 230.574 570.19 401.241 673.112 727.516Z" fill="white"/>
<path d="M1185.04 207.781C1159.4 236.473 1196.02 260.281 1238.15 242.577C1255.24 235.862 1260.73 229.757 1260.73 218.769C1260.73 201.676 1250.97 196.182 1218.61 196.182C1203.35 196.182 1191.75 200.455 1185.04 207.781Z" fill="#9D9E64"/>
<path d="M1324.22 204.727C1317.51 221.821 1326.66 232.809 1347.42 232.809C1358.41 232.809 1373.06 234.64 1379.77 236.472C1386.49 238.303 1397.48 235.251 1404.19 230.367C1415.18 221.821 1415.79 220.6 1406.63 211.443C1401.14 205.948 1382.22 199.844 1362.68 198.012C1333.99 194.96 1327.27 196.181 1324.22 204.727Z" fill="#9D9E64"/>
<path d="M1080.64 224.873C1063.55 229.146 1034.86 257.228 1034.86 270.048C1034.86 299.35 1079.42 299.961 1109.33 271.269C1129.48 252.344 1131.31 235.862 1114.83 226.705C1102.01 220.6 1100.18 219.989 1080.64 224.873Z" fill="#9D9E64"/>
<path d="M1305.3 274.322C1266.84 285.92 1254.63 321.938 1282.1 340.252C1310.18 358.566 1371.23 337.81 1375.5 307.897C1379.16 284.699 1337.65 264.554 1305.3 274.322Z" fill="#9D9E64"/>
<path d="M1484.17 282.868C1470.73 290.194 1471.96 304.234 1486 312.17C1503.09 321.327 1523.24 319.496 1526.9 309.118C1534.22 290.194 1504.31 271.88 1484.17 282.868Z" fill="#9D9E64"/>
<path d="M946.951 306.676C934.132 316.443 931.079 323.769 932.3 339.03C934.132 354.903 936.573 357.955 953.056 359.786C980.527 362.228 1005.56 340.862 1003.11 315.833C1001.28 299.961 998.841 296.908 982.359 295.077C970.76 293.856 957.94 298.129 946.951 306.676Z" fill="#9D9E64"/>
<path d="M1148.41 309.118C1118.49 319.496 1091.63 345.746 1086.75 368.334C1075.15 420.834 1158.78 424.497 1201.52 373.828C1225.32 345.136 1223.49 321.327 1195.41 306.676C1178.93 298.13 1177.71 298.74 1148.41 309.118Z" fill="#9D9E64"/>
<path d="M1528.12 373.828C1513.47 381.764 1514.08 408.014 1528.73 415.95C1548.88 426.328 1581.23 423.276 1594.05 409.235C1605.65 396.415 1605.04 396.415 1588.56 381.764C1570.85 366.502 1545.82 362.839 1528.12 373.828Z" fill="#9D9E64"/>
<path d="M1633.12 381.153C1633.12 392.752 1651.43 408.014 1670.97 412.897C1694.77 419.002 1701.49 400.077 1682.57 384.205C1666.08 371.385 1633.12 368.944 1633.12 381.153Z" fill="#9D9E64"/>
<path d="M892.012 388.478C886.517 393.973 882.244 404.961 882.244 413.508C882.244 425.107 885.296 428.159 896.895 428.159C915.209 428.159 926.808 414.729 923.756 396.415C921.314 379.321 905.442 375.048 892.012 388.478Z" fill="#9D9E64"/>
<path d="M1357.19 389.089C1348.03 393.973 1338.26 404.961 1336.43 414.118C1332.77 426.938 1335.82 433.043 1349.25 445.252C1363.9 457.462 1371.23 459.293 1393.2 456.851C1440.82 451.357 1467.07 410.455 1436.55 389.089C1419.45 376.88 1379.16 376.88 1357.19 389.089Z" fill="#9D9E64"/>
<path d="M993.958 409.846C972.592 422.665 964.046 443.421 970.15 467.84C975.034 486.765 998.232 493.48 1023.26 483.102C1047.07 473.334 1059.28 455.02 1059.28 429.991C1059.28 397.636 1029.37 387.869 993.958 409.846Z" fill="#9D9E64"/>
<path d="M1183.81 448.915C1160.01 472.723 1157.56 489.816 1175.88 508.13C1205.79 538.043 1285.15 506.299 1285.15 464.787C1285.15 440.369 1267.45 428.159 1233.87 428.159C1208.84 428.159 1201.52 431.211 1183.81 448.915Z" fill="#9D9E64"/>
<path d="M912.155 498.973C902.387 510.572 902.998 547.2 912.765 559.41C929.248 579.555 961.603 559.41 961.603 528.886C961.603 497.752 929.248 478.217 912.155 498.973Z" fill="#9D9E64"/>
<path d="M1399.92 502.026C1349.86 528.276 1347.42 567.346 1395.04 581.387C1462.8 601.532 1550.1 528.276 1492.71 498.363C1468.29 485.543 1427.39 487.375 1399.92 502.026Z" fill="#9D9E64"/>
<path d="M1061.11 513.625C1037.3 527.666 1022.65 554.527 1022.65 582.608C1022.65 607.637 1031.81 617.405 1055.01 617.405C1108.12 617.405 1164.28 545.37 1135.59 513.625C1120.94 497.753 1086.75 497.753 1061.11 513.625Z" fill="#9D9E64"/>
<path d="M849.887 542.927C844.393 551.474 853.55 581.997 862.096 585.05C876.748 591.154 882.852 578.334 875.527 557.578C869.422 539.264 855.992 531.939 849.887 542.927Z" fill="#9D9E64"/>
<path d="M1224.1 572.84C1203.35 580.166 1167.94 608.858 1159.39 624.119C1147.8 646.707 1148.41 651.59 1163.06 666.242C1197.24 700.428 1309.57 654.643 1309.57 605.805C1309.57 581.386 1292.48 568.567 1260.12 569.177C1245.47 569.177 1228.99 571.009 1224.1 572.84Z" fill="#9D9E64"/>
<path d="M958.552 629.614C937.185 653.422 964.046 715.08 995.79 715.08C1011.66 715.08 1028.76 691.882 1028.76 669.294C1028.76 628.393 982.97 602.753 958.552 629.614Z" fill="#9D9E64"/>
<path d="M876.139 633.276C876.139 649.758 918.871 725.457 944.511 754.759C967.098 780.399 992.128 791.387 992.128 775.515C992.128 771.852 981.139 756.59 967.709 741.329C954.279 726.067 931.691 693.102 917.04 668.683C892.621 625.95 876.139 611.909 876.139 633.276Z" fill="#9D9E64"/>
<path d="M1078.2 718.132C1062.94 731.562 1059.28 738.888 1059.28 758.423C1059.28 804.818 1100.18 821.911 1132.54 788.946C1156.95 764.527 1161.84 742.55 1146.58 722.405C1129.48 699.207 1102.62 697.986 1078.2 718.132Z" fill="#9D9E64"/>
<path d="M1015.32 806.649C1011.05 813.364 1002.51 818.859 997.011 818.859C990.906 818.859 986.022 821.3 986.022 824.353C986.022 834.731 1033.64 867.696 1047.68 867.086C1055.62 867.086 1069.66 868.917 1078.2 870.748C1108.12 878.074 1103.84 859.149 1068.44 825.574C1050.12 808.481 1032.42 794.44 1029.37 794.44C1025.7 794.44 1019.6 799.934 1015.32 806.649Z" fill="#9D9E64"/>
<path d="M1882.37 584.163C1899.14 554.519 1906.08 512.423 1907.45 495.081L1932.16 446.797L1788.77 339C1813.73 373.934 1864.02 444.401 1865.52 446.797C1867.39 449.791 1871.14 456.903 1872.63 459.523C1874.13 462.143 1874.51 468.132 1874.51 470.752C1874.51 473.372 1873.76 478.238 1872.63 484.601C1871.51 490.964 1864.4 512.298 1863.27 515.293C1862.15 518.287 1854.66 534.751 1852.79 538.871L1852.79 538.873C1850.92 542.991 1839.31 563.202 1836.32 567.32C1833.32 571.437 1816.1 595.392 1812.73 599.509C1809.36 603.626 1788.02 626.833 1785.02 629.453C1782.03 632.073 1759.19 653.033 1756.94 655.279C1754.7 657.525 1728.86 676.614 1725.87 678.86C1722.87 681.105 1697.04 698.323 1694.42 700.194C1691.8 702.066 1658.1 721.529 1652.49 724.523C1647.99 726.919 1619.91 740.743 1606.44 747.355C1592.83 753.469 1564.95 766.07 1562.26 767.567C1558.89 769.439 1519.2 785.159 1516.21 786.656C1513.21 788.154 1473.15 803.5 1470.15 804.997C1467.16 806.494 1431.97 819.969 1428.6 821.84C1425.23 823.712 1377.3 843.924 1372.81 846.169C1368.32 848.415 1332.75 865.633 1327.13 868.253C1322.64 870.349 1297.31 884.347 1285.2 891.085C1278.59 894.828 1264.76 902.837 1262.36 904.934C1259.37 907.554 1236.16 922.525 1233.16 924.771C1230.17 927.017 1214.07 939.743 1212.19 941.24C1210.32 942.737 1200.21 952.095 1197.97 954.34C1195.72 956.586 1186.36 965.569 1184.86 967.441C1183.37 969.312 1175.88 977.921 1174.38 980.167C1172.88 982.413 1165.77 992.144 1164.27 994.39C1162.77 996.636 1156.41 1007.49 1155.29 1009.36C1154.16 1011.23 1150.04 1020.96 1148.92 1023.96C1147.8 1026.95 1144.43 1037.81 1143.68 1040.05C1142.93 1042.3 1141.43 1050.91 1141.06 1054.28C1140.68 1057.65 1139.19 1072.24 1139.19 1072.99C1139.19 1114.72 1066.85 1131.68 1120.84 1147.1C1126.08 1148.6 1130.2 1152.34 1138.44 1155.34C1146.67 1158.33 1156.03 1165.07 1162.77 1168.06C1169.51 1171.06 1194.97 1190.52 1196.84 1191.64C1198.72 1192.77 1221.55 1212.98 1223.8 1214.85C1226.05 1216.72 1232.04 1223.46 1235.03 1226.08C1238.03 1228.7 1253.38 1248.16 1254.88 1249.66C1256.37 1251.16 1265.36 1266.13 1266.48 1268.37C1267.6 1270.62 1268.35 1272.87 1272.1 1281.1C1275.84 1289.33 1279.21 1309.92 1279.96 1313.29C1280.71 1316.66 1281.46 1330.51 1281.83 1338.74C1282.21 1346.98 1280.33 1371.68 1279.96 1374.3C1279.59 1376.92 1274.34 1405.37 1273.97 1407.61C1273.6 1409.86 1264.24 1443.17 1263.86 1444.29C1263.56 1445.19 1255.75 1465.88 1251.88 1476.11L1236.16 1510.54L1216.31 1547.22L1182.99 1603.74L1136.94 1624.7L1099.5 2130L1425.98 2115.03L1670.46 2002.74L1716.88 1958.95C1709.15 1948.84 1646.65 1895.69 1644.25 1892.7C1641.85 1889.7 1628.03 1869.24 1621.41 1859.38C1618.42 1854.39 1611.08 1842.54 1605.69 1835.06C1598.95 1825.7 1594.08 1811.1 1587.34 1801.37C1580.6 1791.64 1577.61 1768.81 1576.48 1760.95C1575.59 1754.66 1575.61 1723.14 1575.74 1708.17C1575.86 1695.07 1576.11 1667.67 1576.11 1662.88C1576.11 1656.89 1578.73 1631.07 1579.1 1624.7C1579.48 1618.34 1582.47 1602.62 1583.22 1596.63C1583.97 1590.64 1589.96 1566.69 1591.09 1561.45C1592.21 1556.21 1603.44 1521.4 1604.19 1518.4C1604.94 1515.41 1609.43 1507.17 1610.93 1501.18C1612.43 1495.2 1627.03 1468.62 1647.62 1453.28C1668.21 1437.93 1685.81 1436.43 1688.43 1435.68C1691.05 1434.93 1701.16 1435.68 1703.41 1435.68C1705.65 1435.68 1714.26 1436.81 1716.88 1437.18L1735.23 1439.8L1798.5 1449.53C1807.24 1450.78 1827.41 1453.13 1838.19 1452.53C1851.67 1451.78 1869.26 1440.92 1878.25 1433.06C1887.23 1425.2 1894.72 1404.62 1895.85 1399.75C1896.97 1394.89 1899.22 1378.79 1898.84 1370.18C1898.47 1361.57 1899.96 1357.08 1901.46 1351.09C1902.96 1345.1 1912.69 1339.49 1923.55 1336.12C1934.41 1332.75 1944.89 1323.77 1950.51 1314.04C1955 1306.25 1952.38 1296.07 1950.51 1291.95C1949.63 1290.21 1947.66 1285.37 1946.76 1279.98C1945.64 1273.24 1950.13 1269.87 1950.51 1269.12C1950.88 1268.37 1955 1265.75 1957.25 1264.63C1959.49 1263.51 1963.99 1256.77 1965.48 1254.15C1966.98 1251.53 1967.36 1246.66 1966.61 1239.18C1965.86 1231.69 1956.12 1221.59 1950.88 1216.72C1945.64 1211.86 1943.39 1208.49 1937.78 1200.63C1932.16 1192.77 1942.65 1182.29 1943.39 1181.91C1944.14 1181.54 1953.13 1172.55 1966.98 1165.44C1980.83 1158.33 1990.19 1143.73 1992.82 1138.87C1995.44 1134 1989.82 1126.14 1987.95 1120.53C1986.08 1114.91 1964.36 1083.1 1959.49 1076.73C1954.63 1070.37 1933.29 1040.43 1928.04 1034.07C1922.8 1027.7 1910.07 1005.99 1904.08 996.261C1898.09 986.53 1895.1 971.932 1892.85 963.323C1890.6 954.715 1892.48 939.369 1893.6 933.38C1894.72 927.391 1900.34 906.431 1904.08 898.196C1907.83 889.962 1912.32 861.515 1913.44 852.907C1914.57 844.298 1914.94 818.846 1914.57 806.12C1914.19 793.394 1908.2 763.076 1907.45 756.339C1906.7 749.601 1897.34 720.406 1895.1 711.797C1893.3 704.91 1883.37 684.224 1878.62 674.742C1871.39 661.642 1856.76 635.292 1856.16 634.693C1855.56 634.094 1855.91 632.946 1856.16 632.447C1857.91 628.704 1865.59 613.807 1882.37 584.163Z" fill="#190B10"/>
<path d="M544.204 2033.85C562.469 2008.54 584.596 1985.1 599 1969.44C617.004 1949.87 651.056 1909.56 658.493 1899.38C665.93 1889.21 684.717 1863.76 692.154 1853.59C699.59 1843.41 724.248 1806.23 729.728 1796.05C735.208 1785.88 753.212 1756.13 760.649 1726C768.085 1695.86 768.085 1672.37 766.911 1659.46C765.737 1646.54 759.475 1608.97 755.561 1598.4C751.647 1587.83 741.47 1547.13 734.816 1532.26C728.162 1517.38 723.074 1500.16 703.895 1478.24C688.553 1460.71 669.583 1441.19 662.016 1433.63C625.746 1436.37 551.405 1442 544.204 1442.63C535.201 1443.41 461.226 1451.24 450.659 1450.06C440.091 1448.89 427.566 1453.59 411.91 1435.19C396.254 1416.8 391.557 1392.92 390.383 1384.31C389.209 1375.7 386.86 1352.22 383.338 1344.39C379.815 1336.56 373.553 1327.56 367.29 1324.04C361.028 1320.51 343.023 1308.77 339.109 1301.34C335.195 1293.9 335.978 1284.51 336.369 1279.81C336.761 1275.11 339.109 1267.68 338.327 1262.98L338.293 1262.78C337.521 1258.14 336.683 1253.11 331.281 1246.93C325.802 1240.67 320.322 1236.76 319.148 1230.89C318.209 1226.19 320.583 1220.06 321.888 1217.58C324.628 1213.66 331.359 1204.74 336.369 1200.36C342.632 1194.88 352.808 1182.35 353.982 1179.61C355.157 1176.87 357.114 1168.65 349.677 1162.39C342.24 1156.13 320.322 1143.61 314.451 1140.87C308.58 1138.13 298.403 1128.34 297.621 1118.16C296.838 1107.99 299.578 1094.68 314.451 1073.55C329.324 1052.41 343.415 1037.54 345.372 1034.41C347.329 1031.28 374.336 994.094 378.25 985.092C382.164 976.09 398.602 944.387 394.688 914.641C390.774 884.896 386.86 875.111 384.903 870.414C382.946 865.717 373.553 834.015 372.77 812.488C371.987 790.962 371.204 775.697 373.944 751.823C376.684 727.948 380.989 699.376 387.252 682.546C393.514 665.717 401.734 644.581 409.17 630.1C415.12 618.515 417.129 614.053 417.39 613.27C405.126 608.573 378.406 597.301 369.639 589.787C358.679 580.393 351.243 579.219 338.718 550.256C326.193 521.293 357.114 458.671 365.333 447.32C373.553 435.97 404.865 383.132 439.7 352.995C474.534 322.858 513.283 282.153 585.692 236.36C631.369 207.474 647.762 191.29 651.757 184.01L652.622 180C653.008 180.745 652.829 182.057 651.757 184.01L544.204 682.546L808.847 1162.39L1014.36 1162.39C1003.4 1177.4 1076.9 1162.39 1094.12 1157.3C1108.49 1153.06 1080.42 1186.66 1076.9 1207.01C1073.38 1227.36 1064.38 1273.55 1069.07 1313.47C1073.77 1353.39 1077.29 1389.79 1089.82 1416.4C1102.34 1443.02 1120.74 1488.81 1140.7 1519.34C1160.66 1549.87 1188.45 1594.1 1206.46 1613.67C1224.46 1633.24 1520.36 2106.43 1401.37 2165.92C1282.39 2225.41 840.103 2199.41 544.204 2033.85Z" fill="#271619"/>
<circle cx="1112" cy="1105.5" r="1055.5" stroke="#190B10" stroke-width="99.4141"/>
<path d="M2871.19 917.347L2806.25 670.508L2741.85 917.347H2658.03L2552 557.868H2640.26L2705.21 817.642L2775.71 557.868H2837.33L2907.28 817.642L2971.67 557.868H3060.49L2955.02 917.347H2871.19Z" fill="black"/>
<path d="M3085.71 737.877C3085.71 629.548 3167.32 551.939 3278.9 551.939C3391.03 551.939 3472.63 629.548 3472.63 737.877C3472.63 846.206 3391.03 923.815 3278.9 923.815C3167.32 923.815 3085.71 846.206 3085.71 737.877ZM3391.59 737.877C3391.59 670.508 3347.18 619.847 3278.9 619.847C3210.62 619.847 3166.76 670.508 3166.76 737.877C3166.76 804.707 3210.62 855.907 3278.9 855.907C3347.18 855.907 3391.59 804.707 3391.59 737.877Z" fill="black"/>
<path d="M3753.89 917.347L3681.16 788.538H3623.43V917.347H3544.6V557.868H3717.8C3794.96 557.868 3842.15 606.912 3842.15 673.742C3842.15 737.338 3801.07 771.292 3761.1 780.454L3844.37 917.347H3753.89ZM3761.66 673.203C3761.66 643.022 3737.79 623.62 3706.14 623.62H3623.43V722.787H3706.14C3737.79 722.787 3761.66 703.384 3761.66 673.203Z" fill="black"/>
<path d="M3917.97 917.347V557.868H3996.79V849.979H4153.34V917.347H3917.97Z" fill="black"/>
<path d="M4225.19 917.347V557.868H4371.19C4487.21 557.868 4567.7 629.548 4567.7 737.877C4567.7 846.206 4487.21 917.347 4371.19 917.347H4225.19ZM4304.02 849.979H4371.19C4444.46 849.979 4487.21 798.778 4487.21 737.877C4487.21 674.281 4447.24 625.237 4371.19 625.237H4304.02V849.979Z" fill="black"/>
<path d="M4975.51 923.815C4867.26 923.815 4781.22 848.362 4781.22 737.877C4781.22 627.392 4867.26 551.939 4975.51 551.939C5059.89 551.939 5107.08 595.055 5133.17 639.788L5065.44 672.125C5049.9 643.022 5016.59 619.847 4975.51 619.847C4911.12 619.847 4862.27 669.969 4862.27 737.877C4862.27 805.785 4911.12 855.907 4975.51 855.907C5016.59 855.907 5049.9 833.271 5065.44 803.629L5133.17 835.427C5106.52 880.16 5059.89 923.815 4975.51 923.815Z" fill="black"/>
<path d="M5196.74 917.347V557.868H5275.57V849.979H5432.11V917.347H5196.74Z" fill="black"/>
<path d="M5763.21 917.347L5739.89 855.368H5574.47L5551.15 917.347H5464.55L5607.77 557.868H5706.58L5849.25 917.347H5763.21ZM5657.18 624.159L5595.56 789.077H5718.24L5657.18 624.159Z" fill="black"/>
<path d="M5870.77 866.686L5914.07 808.48C5940.16 834.888 5980.68 856.985 6031.75 856.985C6075.05 856.985 6096.15 837.044 6096.15 816.564C6096.15 789.616 6063.95 780.454 6021.2 770.753C5960.7 757.279 5882.98 741.111 5882.98 660.807C5882.98 600.984 5936.27 552.478 6023.43 552.478C6082.27 552.478 6131.12 569.725 6167.76 602.601L6123.9 658.652C6093.93 631.704 6053.96 619.308 6017.87 619.308C5982.35 619.308 5963.47 634.399 5963.47 655.957C5963.47 680.21 5994.56 687.755 6037.3 697.456C6098.37 710.93 6176.08 728.715 6176.08 808.48C6176.08 874.231 6127.79 923.815 6027.87 923.815C5956.81 923.815 5905.74 900.64 5870.77 866.686Z" fill="black"/>
<path d="M6220.28 866.686L6263.58 808.48C6289.67 834.888 6330.19 856.985 6381.26 856.985C6424.56 856.985 6445.66 837.044 6445.66 816.564C6445.66 789.616 6413.46 780.454 6370.71 770.753C6310.21 757.279 6232.49 741.111 6232.49 660.807C6232.49 600.984 6285.78 552.478 6372.93 552.478C6431.78 552.478 6480.63 569.725 6517.27 602.601L6473.41 658.652C6443.44 631.704 6403.47 619.308 6367.38 619.308C6331.86 619.308 6312.98 634.399 6312.98 655.957C6312.98 680.21 6344.07 687.755 6386.81 697.456C6447.88 710.93 6525.59 728.715 6525.59 808.48C6525.59 874.231 6477.3 923.815 6377.38 923.815C6306.32 923.815 6255.25 900.64 6220.28 866.686Z" fill="black"/>
<path d="M2552 1682.55V1143.33H2771C2945.03 1143.33 3065.76 1250.85 3065.76 1413.35C3065.76 1575.84 2945.03 1682.55 2771 1682.55H2552ZM2670.24 1581.5H2771C2880.91 1581.5 2945.03 1504.7 2945.03 1413.35C2945.03 1317.95 2885.07 1244.39 2771 1244.39H2670.24V1581.5Z" fill="black"/>
<path d="M3357.85 1682.55V1143.33H3750.87V1241.96H3476.09V1359.18H3745.04V1457.81H3476.09V1583.12H3750.87V1682.55H3357.85Z" fill="black"/>
<path d="M4013.17 1606.56L4078.12 1519.25C4117.26 1558.86 4178.05 1592.01 4254.65 1592.01C4319.6 1592.01 4351.24 1562.1 4351.24 1531.38C4351.24 1490.95 4302.95 1477.21 4238.83 1462.66C4148.07 1442.45 4031.49 1418.2 4031.49 1297.74C4031.49 1208.01 4111.43 1135.25 4242.16 1135.25C4330.43 1135.25 4403.7 1161.12 4458.66 1210.43L4392.88 1294.51C4347.91 1254.09 4287.96 1235.49 4233.84 1235.49C4180.54 1235.49 4152.23 1258.13 4152.23 1290.47C4152.23 1326.84 4198.86 1338.16 4262.98 1352.71C4354.57 1372.92 4471.15 1399.6 4471.15 1519.25C4471.15 1617.88 4398.71 1692.25 4248.82 1692.25C4142.24 1692.25 4065.63 1657.49 4013.17 1606.56Z" fill="black"/>
<path d="M4758.93 1682.55V1143.33H4877.17V1682.55H4758.93Z" fill="black"/>
<path d="M5168.96 1413.35C5168.96 1242.77 5302.19 1134.44 5464.56 1134.44C5579.47 1134.44 5651.91 1188.6 5694.38 1252.47L5596.12 1304.21C5570.31 1266.21 5522.85 1236.3 5464.56 1236.3C5363.8 1236.3 5290.53 1311.48 5290.53 1413.35C5290.53 1515.21 5363.8 1590.39 5464.56 1590.39C5515.35 1590.39 5560.32 1570.18 5584.47 1549.16V1483.68H5436.25V1385.05H5701.04V1591.2C5644.42 1652.64 5565.31 1693.06 5464.56 1693.06C5302.19 1693.06 5168.96 1583.12 5168.96 1413.35Z" fill="black"/>
<path d="M6386.11 1682.55L6121.32 1320.38V1682.55H6003.08V1143.33H6124.65L6381.95 1492.57V1143.33H6500.19V1682.55H6386.11Z" fill="black"/>
</svg>
